<mxfile host="Electron" modified="2023-07-24T17:17:01.398Z" agent="Mozilla/5.0 (Windows NT 10.0; Win64; x64) AppleWebKit/537.36 (KHTML, like Gecko) draw.io/21.6.1 Chrome/112.0.5615.204 Electron/24.6.1 Safari/537.36" etag="RSF0vW6IkaKtJZF5oe7u" version="21.6.1" type="device">
  <diagram name="Strona-1" id="HIqp5ao6kQPPWzlX_Yzj">
    <mxGraphModel dx="1436" dy="844" grid="1" gridSize="10" guides="1" tooltips="1" connect="1" arrows="1" fold="1" page="1" pageScale="1" pageWidth="827" pageHeight="1169" math="0" shadow="0">
      <root>
        <mxCell id="0" />
        <mxCell id="1" parent="0" />
        <mxCell id="LD92nBXG0bBO9r6YTuex-4" style="edgeStyle=orthogonalEdgeStyle;rounded=0;orthogonalLoop=1;jettySize=auto;html=1;exitX=0;exitY=1;exitDx=0;exitDy=0;entryX=0.5;entryY=0;entryDx=0;entryDy=0;" edge="1" parent="1" source="LD92nBXG0bBO9r6YTuex-1" target="LD92nBXG0bBO9r6YTuex-3">
          <mxGeometry relative="1" as="geometry" />
        </mxCell>
        <mxCell id="LD92nBXG0bBO9r6YTuex-5" value="&amp;lt;&amp;nbsp;" style="edgeLabel;html=1;align=center;verticalAlign=middle;resizable=0;points=[];" vertex="1" connectable="0" parent="LD92nBXG0bBO9r6YTuex-4">
          <mxGeometry x="0.0078" y="-2" relative="1" as="geometry">
            <mxPoint x="-116" y="14" as="offset" />
          </mxGeometry>
        </mxCell>
        <mxCell id="LD92nBXG0bBO9r6YTuex-12" style="edgeStyle=orthogonalEdgeStyle;rounded=0;orthogonalLoop=1;jettySize=auto;html=1;exitX=0;exitY=1;exitDx=0;exitDy=0;entryX=0.5;entryY=0;entryDx=0;entryDy=0;" edge="1" parent="1" source="LD92nBXG0bBO9r6YTuex-1" target="LD92nBXG0bBO9r6YTuex-11">
          <mxGeometry relative="1" as="geometry" />
        </mxCell>
        <mxCell id="LD92nBXG0bBO9r6YTuex-13" value="&quot;" style="edgeLabel;html=1;align=center;verticalAlign=middle;resizable=0;points=[];" vertex="1" connectable="0" parent="LD92nBXG0bBO9r6YTuex-12">
          <mxGeometry x="0.7247" y="1" relative="1" as="geometry">
            <mxPoint x="-11" y="1" as="offset" />
          </mxGeometry>
        </mxCell>
        <mxCell id="LD92nBXG0bBO9r6YTuex-70" value="after #include&amp;nbsp; lub #&lt;br&gt;lub in&amp;nbsp;__has_include lub&amp;nbsp;__has_embed" style="edgeLabel;html=1;align=center;verticalAlign=middle;resizable=0;points=[];" vertex="1" connectable="0" parent="LD92nBXG0bBO9r6YTuex-12">
          <mxGeometry x="0.0248" y="-1" relative="1" as="geometry">
            <mxPoint x="-25" y="-27" as="offset" />
          </mxGeometry>
        </mxCell>
        <mxCell id="LD92nBXG0bBO9r6YTuex-28" style="edgeStyle=orthogonalEdgeStyle;rounded=0;orthogonalLoop=1;jettySize=auto;html=1;exitX=0.5;exitY=1;exitDx=0;exitDy=0;entryX=0.5;entryY=0;entryDx=0;entryDy=0;" edge="1" parent="1" source="LD92nBXG0bBO9r6YTuex-1" target="LD92nBXG0bBO9r6YTuex-29">
          <mxGeometry relative="1" as="geometry">
            <mxPoint x="414" y="220" as="targetPoint" />
          </mxGeometry>
        </mxCell>
        <mxCell id="LD92nBXG0bBO9r6YTuex-30" value="iswalpha() lub _" style="edgeLabel;html=1;align=center;verticalAlign=middle;resizable=0;points=[];" vertex="1" connectable="0" parent="LD92nBXG0bBO9r6YTuex-28">
          <mxGeometry x="-0.0111" y="1" relative="1" as="geometry">
            <mxPoint as="offset" />
          </mxGeometry>
        </mxCell>
        <mxCell id="LD92nBXG0bBO9r6YTuex-36" style="edgeStyle=orthogonalEdgeStyle;rounded=0;orthogonalLoop=1;jettySize=auto;html=1;exitX=1;exitY=1;exitDx=0;exitDy=0;" edge="1" parent="1" source="LD92nBXG0bBO9r6YTuex-1" target="LD92nBXG0bBO9r6YTuex-35">
          <mxGeometry relative="1" as="geometry" />
        </mxCell>
        <mxCell id="LD92nBXG0bBO9r6YTuex-37" value="." style="edgeLabel;html=1;align=center;verticalAlign=middle;resizable=0;points=[];" vertex="1" connectable="0" parent="LD92nBXG0bBO9r6YTuex-36">
          <mxGeometry x="-0.0351" y="2" relative="1" as="geometry">
            <mxPoint x="36" y="-6" as="offset" />
          </mxGeometry>
        </mxCell>
        <mxCell id="LD92nBXG0bBO9r6YTuex-41" style="edgeStyle=orthogonalEdgeStyle;rounded=0;orthogonalLoop=1;jettySize=auto;html=1;exitX=1;exitY=1;exitDx=0;exitDy=0;entryX=0;entryY=0.5;entryDx=0;entryDy=0;" edge="1" parent="1" source="LD92nBXG0bBO9r6YTuex-1" target="LD92nBXG0bBO9r6YTuex-38">
          <mxGeometry relative="1" as="geometry">
            <mxPoint x="510" y="290" as="targetPoint" />
          </mxGeometry>
        </mxCell>
        <mxCell id="LD92nBXG0bBO9r6YTuex-42" value="isdigit()" style="edgeLabel;html=1;align=center;verticalAlign=middle;resizable=0;points=[];" vertex="1" connectable="0" parent="LD92nBXG0bBO9r6YTuex-41">
          <mxGeometry x="0.1564" y="-2" relative="1" as="geometry">
            <mxPoint as="offset" />
          </mxGeometry>
        </mxCell>
        <mxCell id="LD92nBXG0bBO9r6YTuex-62" style="edgeStyle=orthogonalEdgeStyle;rounded=0;orthogonalLoop=1;jettySize=auto;html=1;exitX=1;exitY=0.5;exitDx=0;exitDy=0;entryX=0.5;entryY=0;entryDx=0;entryDy=0;" edge="1" parent="1" source="LD92nBXG0bBO9r6YTuex-1" target="LD92nBXG0bBO9r6YTuex-63">
          <mxGeometry relative="1" as="geometry">
            <mxPoint x="1190" y="200" as="targetPoint" />
          </mxGeometry>
        </mxCell>
        <mxCell id="LD92nBXG0bBO9r6YTuex-64" value="u lub u lub L" style="edgeLabel;html=1;align=center;verticalAlign=middle;resizable=0;points=[];" vertex="1" connectable="0" parent="LD92nBXG0bBO9r6YTuex-62">
          <mxGeometry x="0.8376" y="-3" relative="1" as="geometry">
            <mxPoint as="offset" />
          </mxGeometry>
        </mxCell>
        <mxCell id="LD92nBXG0bBO9r6YTuex-73" style="edgeStyle=orthogonalEdgeStyle;rounded=0;orthogonalLoop=1;jettySize=auto;html=1;exitX=1;exitY=0.5;exitDx=0;exitDy=0;entryX=0.5;entryY=0;entryDx=0;entryDy=0;" edge="1" parent="1" source="LD92nBXG0bBO9r6YTuex-1" target="LD92nBXG0bBO9r6YTuex-69">
          <mxGeometry relative="1" as="geometry" />
        </mxCell>
        <mxCell id="LD92nBXG0bBO9r6YTuex-108" style="edgeStyle=orthogonalEdgeStyle;rounded=0;orthogonalLoop=1;jettySize=auto;html=1;exitX=1;exitY=0.5;exitDx=0;exitDy=0;entryX=0;entryY=0.5;entryDx=0;entryDy=0;" edge="1" parent="1" source="LD92nBXG0bBO9r6YTuex-1" target="LD92nBXG0bBO9r6YTuex-107">
          <mxGeometry relative="1" as="geometry" />
        </mxCell>
        <mxCell id="LD92nBXG0bBO9r6YTuex-109" value="iswpunctuator" style="edgeLabel;html=1;align=center;verticalAlign=middle;resizable=0;points=[];" vertex="1" connectable="0" parent="LD92nBXG0bBO9r6YTuex-108">
          <mxGeometry x="0.7868" y="-2" relative="1" as="geometry">
            <mxPoint as="offset" />
          </mxGeometry>
        </mxCell>
        <mxCell id="LD92nBXG0bBO9r6YTuex-1" value="start" style="ellipse;whiteSpace=wrap;html=1;aspect=fixed;" vertex="1" parent="1">
          <mxGeometry x="374" y="40" width="80" height="80" as="geometry" />
        </mxCell>
        <mxCell id="LD92nBXG0bBO9r6YTuex-16" style="edgeStyle=orthogonalEdgeStyle;rounded=0;orthogonalLoop=1;jettySize=auto;html=1;exitX=0.5;exitY=1;exitDx=0;exitDy=0;entryX=0.5;entryY=0;entryDx=0;entryDy=0;" edge="1" parent="1" source="LD92nBXG0bBO9r6YTuex-3" target="LD92nBXG0bBO9r6YTuex-14">
          <mxGeometry relative="1" as="geometry" />
        </mxCell>
        <mxCell id="LD92nBXG0bBO9r6YTuex-18" value="iswprint() bez &amp;gt;&amp;nbsp;" style="edgeLabel;html=1;align=center;verticalAlign=middle;resizable=0;points=[];" vertex="1" connectable="0" parent="LD92nBXG0bBO9r6YTuex-16">
          <mxGeometry x="0.0833" relative="1" as="geometry">
            <mxPoint as="offset" />
          </mxGeometry>
        </mxCell>
        <mxCell id="LD92nBXG0bBO9r6YTuex-3" value="" style="ellipse;whiteSpace=wrap;html=1;aspect=fixed;" vertex="1" parent="1">
          <mxGeometry x="100" y="140" width="80" height="80" as="geometry" />
        </mxCell>
        <mxCell id="LD92nBXG0bBO9r6YTuex-17" style="edgeStyle=orthogonalEdgeStyle;rounded=0;orthogonalLoop=1;jettySize=auto;html=1;exitX=0.5;exitY=1;exitDx=0;exitDy=0;entryX=0.5;entryY=0;entryDx=0;entryDy=0;" edge="1" parent="1" source="LD92nBXG0bBO9r6YTuex-11" target="LD92nBXG0bBO9r6YTuex-15">
          <mxGeometry relative="1" as="geometry" />
        </mxCell>
        <mxCell id="LD92nBXG0bBO9r6YTuex-19" value="iswprint bez &quot;" style="edgeLabel;html=1;align=center;verticalAlign=middle;resizable=0;points=[];" vertex="1" connectable="0" parent="LD92nBXG0bBO9r6YTuex-17">
          <mxGeometry x="0.0583" y="4" relative="1" as="geometry">
            <mxPoint as="offset" />
          </mxGeometry>
        </mxCell>
        <mxCell id="LD92nBXG0bBO9r6YTuex-11" value="" style="ellipse;whiteSpace=wrap;html=1;aspect=fixed;" vertex="1" parent="1">
          <mxGeometry x="220" y="140" width="80" height="80" as="geometry" />
        </mxCell>
        <mxCell id="LD92nBXG0bBO9r6YTuex-22" style="edgeStyle=orthogonalEdgeStyle;rounded=0;orthogonalLoop=1;jettySize=auto;html=1;exitX=0;exitY=0.5;exitDx=0;exitDy=0;entryX=0;entryY=0.5;entryDx=0;entryDy=0;" edge="1" parent="1" source="LD92nBXG0bBO9r6YTuex-14" target="LD92nBXG0bBO9r6YTuex-3">
          <mxGeometry relative="1" as="geometry" />
        </mxCell>
        <mxCell id="LD92nBXG0bBO9r6YTuex-23" style="edgeStyle=orthogonalEdgeStyle;rounded=0;orthogonalLoop=1;jettySize=auto;html=1;entryX=0.5;entryY=0;entryDx=0;entryDy=0;" edge="1" parent="1" source="LD92nBXG0bBO9r6YTuex-14" target="LD92nBXG0bBO9r6YTuex-27">
          <mxGeometry relative="1" as="geometry">
            <mxPoint x="140" y="460" as="targetPoint" />
          </mxGeometry>
        </mxCell>
        <mxCell id="LD92nBXG0bBO9r6YTuex-24" value="&amp;gt;" style="edgeLabel;html=1;align=center;verticalAlign=middle;resizable=0;points=[];" vertex="1" connectable="0" parent="LD92nBXG0bBO9r6YTuex-23">
          <mxGeometry x="0.1887" y="-1" relative="1" as="geometry">
            <mxPoint x="-19" y="-11" as="offset" />
          </mxGeometry>
        </mxCell>
        <mxCell id="LD92nBXG0bBO9r6YTuex-14" value="" style="ellipse;whiteSpace=wrap;html=1;aspect=fixed;" vertex="1" parent="1">
          <mxGeometry x="100" y="300" width="80" height="80" as="geometry" />
        </mxCell>
        <mxCell id="LD92nBXG0bBO9r6YTuex-25" style="edgeStyle=orthogonalEdgeStyle;rounded=0;orthogonalLoop=1;jettySize=auto;html=1;exitX=0.5;exitY=1;exitDx=0;exitDy=0;entryX=0.5;entryY=0;entryDx=0;entryDy=0;" edge="1" parent="1" source="LD92nBXG0bBO9r6YTuex-15" target="LD92nBXG0bBO9r6YTuex-27">
          <mxGeometry relative="1" as="geometry">
            <mxPoint x="260" y="460" as="targetPoint" />
          </mxGeometry>
        </mxCell>
        <mxCell id="LD92nBXG0bBO9r6YTuex-26" value="&quot;" style="edgeLabel;html=1;align=center;verticalAlign=middle;resizable=0;points=[];" vertex="1" connectable="0" parent="LD92nBXG0bBO9r6YTuex-25">
          <mxGeometry x="-0.1719" y="-1" relative="1" as="geometry">
            <mxPoint x="-17" y="-9" as="offset" />
          </mxGeometry>
        </mxCell>
        <mxCell id="LD92nBXG0bBO9r6YTuex-15" value="" style="ellipse;whiteSpace=wrap;html=1;aspect=fixed;" vertex="1" parent="1">
          <mxGeometry x="220" y="300" width="80" height="80" as="geometry" />
        </mxCell>
        <mxCell id="LD92nBXG0bBO9r6YTuex-27" value="header-name" style="ellipse;whiteSpace=wrap;html=1;aspect=fixed;" vertex="1" parent="1">
          <mxGeometry x="160" y="520" width="80" height="80" as="geometry" />
        </mxCell>
        <mxCell id="LD92nBXG0bBO9r6YTuex-32" style="edgeStyle=orthogonalEdgeStyle;rounded=0;orthogonalLoop=1;jettySize=auto;html=1;exitX=0.5;exitY=1;exitDx=0;exitDy=0;entryX=0.5;entryY=0;entryDx=0;entryDy=0;" edge="1" parent="1" source="LD92nBXG0bBO9r6YTuex-29" target="LD92nBXG0bBO9r6YTuex-31">
          <mxGeometry relative="1" as="geometry" />
        </mxCell>
        <mxCell id="LD92nBXG0bBO9r6YTuex-29" value="" style="ellipse;whiteSpace=wrap;html=1;aspect=fixed;" vertex="1" parent="1">
          <mxGeometry x="374" y="240" width="80" height="80" as="geometry" />
        </mxCell>
        <mxCell id="LD92nBXG0bBO9r6YTuex-33" style="edgeStyle=orthogonalEdgeStyle;rounded=0;orthogonalLoop=1;jettySize=auto;html=1;exitX=1;exitY=0.5;exitDx=0;exitDy=0;entryX=1;entryY=0.5;entryDx=0;entryDy=0;" edge="1" parent="1" source="LD92nBXG0bBO9r6YTuex-31" target="LD92nBXG0bBO9r6YTuex-29">
          <mxGeometry relative="1" as="geometry" />
        </mxCell>
        <mxCell id="LD92nBXG0bBO9r6YTuex-34" value="iswalpha() lub iswdigit lub _" style="edgeLabel;html=1;align=center;verticalAlign=middle;resizable=0;points=[];" vertex="1" connectable="0" parent="LD92nBXG0bBO9r6YTuex-33">
          <mxGeometry x="0.4185" relative="1" as="geometry">
            <mxPoint x="16" y="28" as="offset" />
          </mxGeometry>
        </mxCell>
        <mxCell id="LD92nBXG0bBO9r6YTuex-31" value="Identifier" style="ellipse;whiteSpace=wrap;html=1;aspect=fixed;" vertex="1" parent="1">
          <mxGeometry x="374" y="380" width="80" height="80" as="geometry" />
        </mxCell>
        <mxCell id="LD92nBXG0bBO9r6YTuex-39" style="edgeStyle=orthogonalEdgeStyle;rounded=0;orthogonalLoop=1;jettySize=auto;html=1;entryX=0.5;entryY=0;entryDx=0;entryDy=0;" edge="1" parent="1" source="LD92nBXG0bBO9r6YTuex-35" target="LD92nBXG0bBO9r6YTuex-38">
          <mxGeometry relative="1" as="geometry" />
        </mxCell>
        <mxCell id="LD92nBXG0bBO9r6YTuex-40" value="isdigit()" style="edgeLabel;html=1;align=center;verticalAlign=middle;resizable=0;points=[];" vertex="1" connectable="0" parent="LD92nBXG0bBO9r6YTuex-39">
          <mxGeometry x="-0.125" relative="1" as="geometry">
            <mxPoint as="offset" />
          </mxGeometry>
        </mxCell>
        <mxCell id="LD92nBXG0bBO9r6YTuex-35" value="" style="ellipse;whiteSpace=wrap;html=1;aspect=fixed;" vertex="1" parent="1">
          <mxGeometry x="710" y="135" width="80" height="80" as="geometry" />
        </mxCell>
        <mxCell id="LD92nBXG0bBO9r6YTuex-44" style="edgeStyle=orthogonalEdgeStyle;rounded=0;orthogonalLoop=1;jettySize=auto;html=1;entryX=0.5;entryY=0;entryDx=0;entryDy=0;" edge="1" parent="1" source="LD92nBXG0bBO9r6YTuex-38" target="LD92nBXG0bBO9r6YTuex-43">
          <mxGeometry relative="1" as="geometry" />
        </mxCell>
        <mxCell id="LD92nBXG0bBO9r6YTuex-45" value="&#39;" style="edgeLabel;html=1;align=center;verticalAlign=middle;resizable=0;points=[];" vertex="1" connectable="0" parent="LD92nBXG0bBO9r6YTuex-44">
          <mxGeometry x="-0.0333" y="1" relative="1" as="geometry">
            <mxPoint as="offset" />
          </mxGeometry>
        </mxCell>
        <mxCell id="LD92nBXG0bBO9r6YTuex-51" style="edgeStyle=orthogonalEdgeStyle;rounded=0;orthogonalLoop=1;jettySize=auto;html=1;exitX=1;exitY=0.5;exitDx=0;exitDy=0;entryX=0.5;entryY=0;entryDx=0;entryDy=0;" edge="1" parent="1" source="LD92nBXG0bBO9r6YTuex-38" target="LD92nBXG0bBO9r6YTuex-52">
          <mxGeometry relative="1" as="geometry">
            <mxPoint x="890" y="370" as="targetPoint" />
          </mxGeometry>
        </mxCell>
        <mxCell id="LD92nBXG0bBO9r6YTuex-53" value="p lub P lub e lub E" style="edgeLabel;html=1;align=center;verticalAlign=middle;resizable=0;points=[];" vertex="1" connectable="0" parent="LD92nBXG0bBO9r6YTuex-51">
          <mxGeometry x="0.3235" y="1" relative="1" as="geometry">
            <mxPoint as="offset" />
          </mxGeometry>
        </mxCell>
        <mxCell id="LD92nBXG0bBO9r6YTuex-59" style="edgeStyle=orthogonalEdgeStyle;rounded=0;orthogonalLoop=1;jettySize=auto;html=1;exitX=1;exitY=0.5;exitDx=0;exitDy=0;entryX=0.5;entryY=0;entryDx=0;entryDy=0;" edge="1" parent="1" source="LD92nBXG0bBO9r6YTuex-38" target="LD92nBXG0bBO9r6YTuex-58">
          <mxGeometry relative="1" as="geometry" />
        </mxCell>
        <mxCell id="LD92nBXG0bBO9r6YTuex-60" value="." style="edgeLabel;html=1;align=center;verticalAlign=middle;resizable=0;points=[];" vertex="1" connectable="0" parent="LD92nBXG0bBO9r6YTuex-59">
          <mxGeometry x="0.6678" relative="1" as="geometry">
            <mxPoint as="offset" />
          </mxGeometry>
        </mxCell>
        <mxCell id="LD92nBXG0bBO9r6YTuex-38" value="pp-number" style="ellipse;whiteSpace=wrap;html=1;aspect=fixed;" vertex="1" parent="1">
          <mxGeometry x="710" y="255" width="80" height="80" as="geometry" />
        </mxCell>
        <mxCell id="LD92nBXG0bBO9r6YTuex-47" style="edgeStyle=orthogonalEdgeStyle;rounded=0;orthogonalLoop=1;jettySize=auto;html=1;entryX=0.5;entryY=0;entryDx=0;entryDy=0;" edge="1" parent="1" source="LD92nBXG0bBO9r6YTuex-43" target="LD92nBXG0bBO9r6YTuex-46">
          <mxGeometry relative="1" as="geometry" />
        </mxCell>
        <mxCell id="LD92nBXG0bBO9r6YTuex-48" value="isalpha() lub isdigit()" style="edgeLabel;html=1;align=center;verticalAlign=middle;resizable=0;points=[];" vertex="1" connectable="0" parent="LD92nBXG0bBO9r6YTuex-47">
          <mxGeometry x="-0.2083" y="-1" relative="1" as="geometry">
            <mxPoint as="offset" />
          </mxGeometry>
        </mxCell>
        <mxCell id="LD92nBXG0bBO9r6YTuex-43" value="" style="ellipse;whiteSpace=wrap;html=1;aspect=fixed;" vertex="1" parent="1">
          <mxGeometry x="710" y="385" width="80" height="80" as="geometry" />
        </mxCell>
        <mxCell id="LD92nBXG0bBO9r6YTuex-49" style="edgeStyle=orthogonalEdgeStyle;rounded=0;orthogonalLoop=1;jettySize=auto;html=1;entryX=0;entryY=0.5;entryDx=0;entryDy=0;" edge="1" parent="1" source="LD92nBXG0bBO9r6YTuex-46" target="LD92nBXG0bBO9r6YTuex-38">
          <mxGeometry relative="1" as="geometry">
            <Array as="points">
              <mxPoint x="580" y="545" />
              <mxPoint x="580" y="295" />
            </Array>
          </mxGeometry>
        </mxCell>
        <mxCell id="LD92nBXG0bBO9r6YTuex-46" value="pp-number" style="ellipse;whiteSpace=wrap;html=1;aspect=fixed;" vertex="1" parent="1">
          <mxGeometry x="710" y="505" width="80" height="80" as="geometry" />
        </mxCell>
        <mxCell id="LD92nBXG0bBO9r6YTuex-57" style="edgeStyle=orthogonalEdgeStyle;rounded=0;orthogonalLoop=1;jettySize=auto;html=1;exitX=0.5;exitY=1;exitDx=0;exitDy=0;entryX=0;entryY=0.5;entryDx=0;entryDy=0;" edge="1" parent="1" source="LD92nBXG0bBO9r6YTuex-50" target="LD92nBXG0bBO9r6YTuex-38">
          <mxGeometry relative="1" as="geometry">
            <Array as="points">
              <mxPoint x="900" y="610" />
              <mxPoint x="580" y="610" />
              <mxPoint x="580" y="295" />
            </Array>
          </mxGeometry>
        </mxCell>
        <mxCell id="LD92nBXG0bBO9r6YTuex-50" value="pp-number" style="ellipse;whiteSpace=wrap;html=1;aspect=fixed;" vertex="1" parent="1">
          <mxGeometry x="860" y="505" width="80" height="80" as="geometry" />
        </mxCell>
        <mxCell id="LD92nBXG0bBO9r6YTuex-54" style="edgeStyle=orthogonalEdgeStyle;rounded=0;orthogonalLoop=1;jettySize=auto;html=1;entryX=0.5;entryY=0;entryDx=0;entryDy=0;" edge="1" parent="1" source="LD92nBXG0bBO9r6YTuex-52" target="LD92nBXG0bBO9r6YTuex-50">
          <mxGeometry relative="1" as="geometry" />
        </mxCell>
        <mxCell id="LD92nBXG0bBO9r6YTuex-55" value="+ lub -" style="edgeLabel;html=1;align=center;verticalAlign=middle;resizable=0;points=[];" vertex="1" connectable="0" parent="LD92nBXG0bBO9r6YTuex-54">
          <mxGeometry x="-0.0492" y="4" relative="1" as="geometry">
            <mxPoint as="offset" />
          </mxGeometry>
        </mxCell>
        <mxCell id="LD92nBXG0bBO9r6YTuex-52" value="" style="ellipse;whiteSpace=wrap;html=1;aspect=fixed;" vertex="1" parent="1">
          <mxGeometry x="860" y="385" width="80" height="80" as="geometry" />
        </mxCell>
        <mxCell id="LD92nBXG0bBO9r6YTuex-61" style="edgeStyle=orthogonalEdgeStyle;rounded=0;orthogonalLoop=1;jettySize=auto;html=1;entryX=0;entryY=0.5;entryDx=0;entryDy=0;exitX=0.5;exitY=1;exitDx=0;exitDy=0;" edge="1" parent="1" source="LD92nBXG0bBO9r6YTuex-58" target="LD92nBXG0bBO9r6YTuex-38">
          <mxGeometry relative="1" as="geometry">
            <Array as="points">
              <mxPoint x="1050" y="610" />
              <mxPoint x="580" y="610" />
              <mxPoint x="580" y="295" />
            </Array>
          </mxGeometry>
        </mxCell>
        <mxCell id="LD92nBXG0bBO9r6YTuex-58" value="pp-number" style="ellipse;whiteSpace=wrap;html=1;aspect=fixed;" vertex="1" parent="1">
          <mxGeometry x="1010" y="385" width="80" height="80" as="geometry" />
        </mxCell>
        <mxCell id="LD92nBXG0bBO9r6YTuex-67" style="edgeStyle=orthogonalEdgeStyle;rounded=0;orthogonalLoop=1;jettySize=auto;html=1;entryX=0;entryY=0.5;entryDx=0;entryDy=0;" edge="1" parent="1" source="LD92nBXG0bBO9r6YTuex-63" target="LD92nBXG0bBO9r6YTuex-66">
          <mxGeometry relative="1" as="geometry" />
        </mxCell>
        <mxCell id="LD92nBXG0bBO9r6YTuex-68" value="8" style="edgeLabel;html=1;align=center;verticalAlign=middle;resizable=0;points=[];" vertex="1" connectable="0" parent="LD92nBXG0bBO9r6YTuex-67">
          <mxGeometry x="-0.2264" y="2" relative="1" as="geometry">
            <mxPoint as="offset" />
          </mxGeometry>
        </mxCell>
        <mxCell id="LD92nBXG0bBO9r6YTuex-71" style="edgeStyle=orthogonalEdgeStyle;rounded=0;orthogonalLoop=1;jettySize=auto;html=1;exitX=0.5;exitY=1;exitDx=0;exitDy=0;entryX=0.5;entryY=0;entryDx=0;entryDy=0;" edge="1" parent="1" source="LD92nBXG0bBO9r6YTuex-63" target="LD92nBXG0bBO9r6YTuex-69">
          <mxGeometry relative="1" as="geometry" />
        </mxCell>
        <mxCell id="LD92nBXG0bBO9r6YTuex-63" value="" style="ellipse;whiteSpace=wrap;html=1;aspect=fixed;" vertex="1" parent="1">
          <mxGeometry x="1250" y="215" width="80" height="80" as="geometry" />
        </mxCell>
        <mxCell id="LD92nBXG0bBO9r6YTuex-72" style="edgeStyle=orthogonalEdgeStyle;rounded=0;orthogonalLoop=1;jettySize=auto;html=1;exitX=0.5;exitY=1;exitDx=0;exitDy=0;" edge="1" parent="1" source="LD92nBXG0bBO9r6YTuex-66" target="LD92nBXG0bBO9r6YTuex-69">
          <mxGeometry relative="1" as="geometry" />
        </mxCell>
        <mxCell id="LD92nBXG0bBO9r6YTuex-66" value="" style="ellipse;whiteSpace=wrap;html=1;aspect=fixed;" vertex="1" parent="1">
          <mxGeometry x="1400" y="215" width="80" height="80" as="geometry" />
        </mxCell>
        <mxCell id="LD92nBXG0bBO9r6YTuex-77" style="edgeStyle=orthogonalEdgeStyle;rounded=0;orthogonalLoop=1;jettySize=auto;html=1;exitX=0.5;exitY=1;exitDx=0;exitDy=0;entryX=0.5;entryY=0;entryDx=0;entryDy=0;" edge="1" parent="1" source="LD92nBXG0bBO9r6YTuex-69" target="LD92nBXG0bBO9r6YTuex-75">
          <mxGeometry relative="1" as="geometry" />
        </mxCell>
        <mxCell id="LD92nBXG0bBO9r6YTuex-79" value="&quot;" style="edgeLabel;html=1;align=center;verticalAlign=middle;resizable=0;points=[];" vertex="1" connectable="0" parent="LD92nBXG0bBO9r6YTuex-77">
          <mxGeometry x="0.4611" y="-3" relative="1" as="geometry">
            <mxPoint x="-8" as="offset" />
          </mxGeometry>
        </mxCell>
        <mxCell id="LD92nBXG0bBO9r6YTuex-78" style="edgeStyle=orthogonalEdgeStyle;rounded=0;orthogonalLoop=1;jettySize=auto;html=1;exitX=0.5;exitY=1;exitDx=0;exitDy=0;entryX=0.5;entryY=0;entryDx=0;entryDy=0;" edge="1" parent="1" source="LD92nBXG0bBO9r6YTuex-69" target="LD92nBXG0bBO9r6YTuex-101">
          <mxGeometry relative="1" as="geometry">
            <mxPoint x="1430" y="505" as="targetPoint" />
          </mxGeometry>
        </mxCell>
        <mxCell id="LD92nBXG0bBO9r6YTuex-80" value="&#39;" style="edgeLabel;html=1;align=center;verticalAlign=middle;resizable=0;points=[];" vertex="1" connectable="0" parent="LD92nBXG0bBO9r6YTuex-78">
          <mxGeometry x="0.8179" y="1" relative="1" as="geometry">
            <mxPoint x="9" as="offset" />
          </mxGeometry>
        </mxCell>
        <mxCell id="LD92nBXG0bBO9r6YTuex-69" value="" style="ellipse;whiteSpace=wrap;html=1;aspect=fixed;" vertex="1" parent="1">
          <mxGeometry x="1160.5" y="340" width="80" height="80" as="geometry" />
        </mxCell>
        <mxCell id="LD92nBXG0bBO9r6YTuex-82" style="edgeStyle=orthogonalEdgeStyle;rounded=0;orthogonalLoop=1;jettySize=auto;html=1;exitX=0.5;exitY=1;exitDx=0;exitDy=0;entryX=0.5;entryY=0;entryDx=0;entryDy=0;" edge="1" parent="1" source="LD92nBXG0bBO9r6YTuex-75" target="LD92nBXG0bBO9r6YTuex-81">
          <mxGeometry relative="1" as="geometry" />
        </mxCell>
        <mxCell id="LD92nBXG0bBO9r6YTuex-83" value="iswprint() + escape character + space bez \ i &quot;&amp;nbsp;" style="edgeLabel;html=1;align=center;verticalAlign=middle;resizable=0;points=[];rotation=0;" vertex="1" connectable="0" parent="LD92nBXG0bBO9r6YTuex-82">
          <mxGeometry x="-0.1549" relative="1" as="geometry">
            <mxPoint as="offset" />
          </mxGeometry>
        </mxCell>
        <mxCell id="LD92nBXG0bBO9r6YTuex-106" style="edgeStyle=orthogonalEdgeStyle;rounded=0;orthogonalLoop=1;jettySize=auto;html=1;entryX=0;entryY=0.5;entryDx=0;entryDy=0;" edge="1" parent="1" source="LD92nBXG0bBO9r6YTuex-75" target="LD92nBXG0bBO9r6YTuex-87">
          <mxGeometry relative="1" as="geometry">
            <Array as="points">
              <mxPoint x="1140" y="540" />
              <mxPoint x="1140" y="670" />
              <mxPoint x="1141" y="670" />
              <mxPoint x="1141" y="800" />
            </Array>
          </mxGeometry>
        </mxCell>
        <mxCell id="LD92nBXG0bBO9r6YTuex-75" value="" style="ellipse;whiteSpace=wrap;html=1;aspect=fixed;" vertex="1" parent="1">
          <mxGeometry x="1161" y="500" width="80" height="80" as="geometry" />
        </mxCell>
        <mxCell id="LD92nBXG0bBO9r6YTuex-88" style="edgeStyle=orthogonalEdgeStyle;rounded=0;orthogonalLoop=1;jettySize=auto;html=1;exitX=1;exitY=0.5;exitDx=0;exitDy=0;entryX=1;entryY=0.5;entryDx=0;entryDy=0;" edge="1" parent="1" source="LD92nBXG0bBO9r6YTuex-81" target="LD92nBXG0bBO9r6YTuex-75">
          <mxGeometry relative="1" as="geometry" />
        </mxCell>
        <mxCell id="LD92nBXG0bBO9r6YTuex-89" style="edgeStyle=orthogonalEdgeStyle;rounded=0;orthogonalLoop=1;jettySize=auto;html=1;exitX=0.5;exitY=1;exitDx=0;exitDy=0;entryX=0.5;entryY=0;entryDx=0;entryDy=0;" edge="1" parent="1" source="LD92nBXG0bBO9r6YTuex-81" target="LD92nBXG0bBO9r6YTuex-87">
          <mxGeometry relative="1" as="geometry" />
        </mxCell>
        <mxCell id="LD92nBXG0bBO9r6YTuex-81" value="" style="ellipse;whiteSpace=wrap;html=1;aspect=fixed;" vertex="1" parent="1">
          <mxGeometry x="1161" y="640" width="80" height="80" as="geometry" />
        </mxCell>
        <mxCell id="LD92nBXG0bBO9r6YTuex-87" value="string literal" style="ellipse;whiteSpace=wrap;html=1;aspect=fixed;" vertex="1" parent="1">
          <mxGeometry x="1161" y="760" width="80" height="80" as="geometry" />
        </mxCell>
        <mxCell id="LD92nBXG0bBO9r6YTuex-99" style="edgeStyle=orthogonalEdgeStyle;rounded=0;orthogonalLoop=1;jettySize=auto;html=1;exitX=0.5;exitY=1;exitDx=0;exitDy=0;entryX=0.5;entryY=0;entryDx=0;entryDy=0;" edge="1" parent="1" source="LD92nBXG0bBO9r6YTuex-101" target="LD92nBXG0bBO9r6YTuex-104">
          <mxGeometry relative="1" as="geometry" />
        </mxCell>
        <mxCell id="LD92nBXG0bBO9r6YTuex-100" value="iswprint() + escape character + space bez \ i &#39;&amp;nbsp;" style="edgeLabel;html=1;align=center;verticalAlign=middle;resizable=0;points=[];rotation=0;" vertex="1" connectable="0" parent="LD92nBXG0bBO9r6YTuex-99">
          <mxGeometry x="-0.1549" relative="1" as="geometry">
            <mxPoint as="offset" />
          </mxGeometry>
        </mxCell>
        <mxCell id="LD92nBXG0bBO9r6YTuex-101" value="" style="ellipse;whiteSpace=wrap;html=1;aspect=fixed;" vertex="1" parent="1">
          <mxGeometry x="1390" y="510" width="80" height="80" as="geometry" />
        </mxCell>
        <mxCell id="LD92nBXG0bBO9r6YTuex-102" style="edgeStyle=orthogonalEdgeStyle;rounded=0;orthogonalLoop=1;jettySize=auto;html=1;exitX=1;exitY=0.5;exitDx=0;exitDy=0;entryX=1;entryY=0.5;entryDx=0;entryDy=0;" edge="1" parent="1" source="LD92nBXG0bBO9r6YTuex-104" target="LD92nBXG0bBO9r6YTuex-101">
          <mxGeometry relative="1" as="geometry" />
        </mxCell>
        <mxCell id="LD92nBXG0bBO9r6YTuex-103" style="edgeStyle=orthogonalEdgeStyle;rounded=0;orthogonalLoop=1;jettySize=auto;html=1;exitX=0.5;exitY=1;exitDx=0;exitDy=0;entryX=0.5;entryY=0;entryDx=0;entryDy=0;" edge="1" parent="1" source="LD92nBXG0bBO9r6YTuex-104" target="LD92nBXG0bBO9r6YTuex-105">
          <mxGeometry relative="1" as="geometry" />
        </mxCell>
        <mxCell id="LD92nBXG0bBO9r6YTuex-104" value="" style="ellipse;whiteSpace=wrap;html=1;aspect=fixed;" vertex="1" parent="1">
          <mxGeometry x="1390" y="650" width="80" height="80" as="geometry" />
        </mxCell>
        <mxCell id="LD92nBXG0bBO9r6YTuex-105" value="char constant" style="ellipse;whiteSpace=wrap;html=1;aspect=fixed;" vertex="1" parent="1">
          <mxGeometry x="1390" y="770" width="80" height="80" as="geometry" />
        </mxCell>
        <mxCell id="LD92nBXG0bBO9r6YTuex-107" value="punctuator" style="ellipse;whiteSpace=wrap;html=1;aspect=fixed;" vertex="1" parent="1">
          <mxGeometry x="1550" y="40" width="80" height="80" as="geometry" />
        </mxCell>
      </root>
    </mxGraphModel>
  </diagram>
</mxfile>
